<svg xmlns="http://www.w3.org/2000/svg" xmlns:xlink="http://www.w3.org/1999/xlink" version="1.1" x="0px" y="0px" viewBox="206 206 100 125" enable-background="new 206 206 100 100" xml:space="preserve"><g><path d="M265.671,236.583c-0.504,0-0.912,0.408-0.912,0.912s0.408,0.912,0.912,0.912h18.677c0.006,0,0.012,0.002,0.019,0.002h3.047   c0.504,0,0.912-0.408,0.912-0.912v-5.721c0-0.503-0.408-0.912-0.912-0.912h-2.988c-0.019-0.001-0.039-0.002-0.059-0.002h-18.689   c-0.504,0-0.912,0.408-0.912,0.912s0.408,0.912,0.912,0.912h17.777l-0.001,1.039h-17.781c-0.504,0-0.912,0.408-0.912,0.912   s0.408,0.912,0.912,0.912h17.78v1.036L265.671,236.583L265.671,236.583z M285.277,232.687h1.224v3.898h-1.224l-0.001-1.948   L285.277,232.687z"/><path d="M224.235,235.477l6.836,2.858c0.001,0.001,0.003,0.001,0.004,0.002l0.001,0c0.007,0.003,0.014,0.004,0.02,0.006   c0.049,0.019,0.099,0.036,0.151,0.046c0.059,0.012,0.12,0.018,0.181,0.018h8.889c0.503,0,0.912-0.408,0.912-0.912   s-0.408-0.912-0.912-0.912h-7.977v-1.037h7.996c0.503,0,0.912-0.408,0.912-0.912s-0.408-0.912-0.912-0.912h-7.996v-1.037h8.017   c0.503,0,0.912-0.408,0.912-0.912s-0.408-0.912-0.912-0.912h-8.928c-0.003,0-0.005,0.001-0.008,0.001   c-0.053,0-0.107,0.006-0.16,0.016c-0.012,0.002-0.024,0.005-0.036,0.008c-0.05,0.011-0.1,0.026-0.149,0.046l-0.001,0   c-0.001,0.001-0.003,0.001-0.004,0.002l-6.836,2.859c-0.339,0.142-0.56,0.473-0.56,0.841   C223.675,235.004,223.896,235.335,224.235,235.477z M230.516,233.145v1.491v1.491l-3.566-1.491L230.516,233.145z"/><path d="M295.442,292.038h-2.626v-43.157c0-3.647-2.968-6.614-6.616-6.614c-0.002,0-0.003,0.001-0.005,0.001h-17.039   c-0.504,0-0.912,0.408-0.912,0.912c0,0.503,0.408,0.912,0.912,0.912h17.044c0.001,0,0.003,0,0.004,0   c2.641,0.002,4.788,2.15,4.788,4.79v43.157h-69.987v-43.151c0-0.002,0.001-0.004,0.001-0.006c0-1.321,0.537-2.518,1.405-3.386   c0.868-0.867,2.066-1.405,3.387-1.405h13.657c0.503,0,0.912-0.408,0.912-0.912c0-0.503-0.408-0.912-0.912-0.912h-13.653   c-0.001,0-0.002,0-0.003,0c-1.824,0-3.478,0.742-4.676,1.939c-1.198,1.198-1.94,2.852-1.94,4.675v43.156h-2.625   c-0.503,0-0.912,0.408-0.912,0.912v3.537c0,0.349,0.2,0.668,0.514,0.82l5.837,2.83c0.124,0.06,0.26,0.091,0.398,0.091h67.211   c0.138,0,0.274-0.031,0.398-0.091l5.837-2.83c0.314-0.152,0.514-0.471,0.514-0.82v-3.537   C296.354,292.446,295.946,292.038,295.442,292.038z M294.53,295.916l-5.134,2.49h-66.792l-5.134-2.49v-2.055h2.623   c0.001,0,0.001,0,0.002,0c0.001,0,0.001,0,0.002,0h74.434L294.53,295.916L294.53,295.916z"/><path d="M240.294,246.759h-16.307c-0.503,0-0.912,0.408-0.912,0.912v41.742c0,0.504,0.408,0.912,0.912,0.912h64.026   c0.504,0,0.912-0.408,0.912-0.912v-41.742c0-0.503-0.408-0.912-0.912-0.912h-22.702c-0.504,0-0.912,0.408-0.912,0.912   s0.408,0.912,0.912,0.912h21.791v39.919h-62.202v-39.919h15.395c0.503,0,0.912-0.408,0.912-0.912S240.797,246.759,240.294,246.759z   "/><path d="M246.449,297.045h19.102c0.504,0,0.912-0.408,0.912-0.912s-0.408-0.912-0.912-0.912h-19.102   c-0.503,0-0.912,0.408-0.912,0.912S245.946,297.045,246.449,297.045z"/><path d="M241.545,250.198c0.01,1.762,1.452,3.196,3.214,3.196c0.002,0,0.017,0,0.019,0l16.029-0.091   c1.772-0.01,3.206-1.461,3.196-3.233c-0.005-0.949-0.428-1.8-1.09-2.386l1.225-1.306c0.339-0.324,3.975-3.833,4.916-6.421   c0.172-0.473-0.072-0.996-0.546-1.168c-0.472-0.172-0.996,0.072-1.168,0.546c-0.68,1.87-3.462,4.777-4.477,5.74   c-0.013,0.012-0.026,0.025-0.038,0.038l-1.673,1.784c-0.119-0.013-0.24-0.022-0.362-0.022c-0.002,0-0.018,0-0.019,0l-16.03,0.091   c-0.072,0-0.142,0.007-0.213,0.012c-0.57-0.613-0.937-1.51-0.917-2.307l0.106-5.836l0.055-9.538v-0.012l0.037-1.756   c0.011-0.435,0.187-0.836,0.496-1.13c0.294-0.279,0.671-0.429,1.072-0.417c0.844,0.022,1.513,0.752,1.492,1.628   c0,0.008,0,0.015,0,0.023l0.001,1.577l0,0.012c0,0.001,0,0.001,0,0.001v0.075c0,0.503,0.408,0.911,0.912,0.911c0,0,0,0,0.001,0   c0.504,0,0.911-0.409,0.911-0.912v-0.063l0.038-1.805c0.011-0.437,0.191-0.843,0.508-1.144s0.731-0.461,1.168-0.45   c0.437,0.011,0.844,0.192,1.145,0.508c0.301,0.317,0.461,0.731,0.45,1.168c0,0.008,0,0.016,0,0.024l0.001,1.698   c0,0.033,0.006,0.064,0.01,0.096c0.003,0.027,0.003,0.055,0.008,0.082c0.007,0.037,0.02,0.072,0.032,0.108   c0.007,0.021,0.011,0.043,0.02,0.063c0.016,0.039,0.037,0.074,0.058,0.11c0.009,0.015,0.015,0.031,0.024,0.045   c0.025,0.037,0.054,0.071,0.084,0.104c0.009,0.01,0.016,0.022,0.026,0.031c0.033,0.034,0.07,0.063,0.108,0.091   c0.009,0.007,0.016,0.015,0.025,0.021c0.041,0.028,0.086,0.052,0.132,0.073c0.007,0.003,0.014,0.009,0.022,0.012   c0.049,0.021,0.1,0.037,0.153,0.049c0.006,0.001,0.011,0.004,0.018,0.005c0.055,0.012,0.111,0.017,0.169,0.019   c0.005,0,0.009,0.001,0.014,0.001c0.001,0,0.001,0,0.001,0c0.003,0,0.005,0.001,0.008,0.001c0,0,0,0,0,0   c0.306,0,0.574-0.152,0.74-0.383c0.004-0.005,0.009-0.01,0.013-0.015c0.024-0.036,0.044-0.075,0.063-0.114   c0.007-0.014,0.016-0.026,0.022-0.041c0.015-0.034,0.024-0.071,0.034-0.107c0.006-0.022,0.015-0.042,0.02-0.064   c0.007-0.032,0.008-0.065,0.011-0.098c0.003-0.027,0.009-0.053,0.009-0.081l0.039-1.812c0.011-0.437,0.192-0.843,0.508-1.144   c0.317-0.301,0.73-0.461,1.168-0.45c0.902,0.023,1.618,0.775,1.595,1.677c0,0.008,0,0.015,0,0.023l0.001,1.655l0,0.032   c0,0.001,0,0.003,0,0.004v0.007c0,0.019,0.004,0.036,0.005,0.055c0.003,0.042,0.005,0.085,0.013,0.125   c0.005,0.023,0.014,0.045,0.02,0.068c0.01,0.035,0.018,0.07,0.032,0.103c0.011,0.026,0.026,0.049,0.039,0.074   c0.014,0.027,0.027,0.055,0.044,0.08c0.018,0.027,0.04,0.05,0.06,0.075c0.017,0.02,0.032,0.042,0.05,0.06   c0.025,0.026,0.054,0.047,0.082,0.069c0.017,0.014,0.033,0.03,0.051,0.042c0.033,0.022,0.068,0.04,0.104,0.058   c0.017,0.009,0.032,0.02,0.05,0.027c0.04,0.018,0.083,0.029,0.126,0.041c0.015,0.004,0.028,0.01,0.044,0.013   c0.047,0.01,0.097,0.014,0.146,0.016c0.012,0.001,0.023,0.004,0.035,0.004c0.001,0,0.003,0,0.004,0   c0.002,0,0.004,0.001,0.006,0.001c0,0,0,0,0,0c0.369,0,0.685-0.22,0.828-0.535c0.003-0.005,0.006-0.01,0.009-0.016   c0.019-0.043,0.031-0.089,0.043-0.135c0.003-0.012,0.008-0.023,0.011-0.036c0.009-0.04,0.011-0.083,0.014-0.125   c0.001-0.019,0.006-0.036,0.006-0.055l0-0.007c0-0.001,0-0.001,0-0.002v-0.007l0.038-1.795c0.011-0.437,0.192-0.843,0.508-1.144   c0.317-0.301,0.728-0.459,1.168-0.45c0.437,0.011,0.843,0.192,1.145,0.508c0.301,0.317,0.461,0.731,0.45,1.168   c0,0.008,0,0.016,0,0.024l0.001,1.698c0,0.001,0,0.001,0,0.002l-0.012,12.188c-0.001,0.503,0.407,0.912,0.911,0.913   c0,0,0.001,0,0.001,0c0.503,0,0.911-0.407,0.912-0.911l0.012-12.191c0-0.001,0-0.001,0-0.002l-0.001-1.686   c0.02-0.919-0.317-1.791-0.951-2.458c-0.637-0.67-1.496-1.052-2.42-1.075c-0.932-0.022-1.801,0.315-2.471,0.952   c-0.065,0.062-0.125,0.127-0.184,0.193c-0.614-0.68-1.492-1.12-2.478-1.145c-0.921-0.023-1.801,0.315-2.471,0.952   c-0.065,0.061-0.124,0.127-0.183,0.192c-0.02-0.023-0.038-0.047-0.06-0.069c-0.637-0.67-1.496-1.052-2.421-1.075   c-0.92-0.024-1.801,0.315-2.471,0.952c-0.081,0.077-0.158,0.158-0.23,0.242c-0.591-0.624-1.412-1.022-2.329-1.045   c-0.885-0.024-1.728,0.303-2.375,0.918c-0.663,0.63-1.04,1.485-1.063,2.406l-0.033,1.297c0,0.005,0,0.016,0,0.021l-0.004,0.426   c0,0.001,0,0.002,0,0.003l-0.055,9.583l-0.106,5.819c-0.026,1.052,0.335,2.15,0.962,3.042c-0.096,0.077-0.189,0.159-0.277,0.248   C241.87,248.531,241.54,249.34,241.545,250.198z M243.77,249.202c0.261-0.264,0.61-0.411,0.982-0.413l16.038-0.091   c0.762,0,1.385,0.62,1.39,1.383c0.004,0.767-0.616,1.394-1.383,1.399l-16.029,0.091l-0.008,0.912v-0.912   c-0.762,0-1.386-0.62-1.39-1.384C243.366,249.816,243.509,249.466,243.77,249.202z"/><path d="M244.773,253.971c-0.503,0-0.912,0.408-0.912,0.912v10.194l-6.771,3.308c-0.017,0.008-0.031,0.02-0.047,0.029   c-0.029,0.017-0.058,0.033-0.085,0.053c-0.024,0.017-0.045,0.036-0.067,0.055c-0.022,0.02-0.044,0.039-0.064,0.061   c-0.021,0.022-0.039,0.045-0.057,0.069c-0.018,0.023-0.035,0.046-0.05,0.071c-0.015,0.025-0.028,0.05-0.041,0.076   c-0.013,0.027-0.026,0.053-0.037,0.082c-0.01,0.028-0.018,0.055-0.026,0.084c-0.008,0.028-0.015,0.056-0.02,0.085   c-0.006,0.033-0.008,0.066-0.01,0.099c-0.001,0.019-0.006,0.037-0.006,0.056v3.908c-1.187,0.385-2.049,1.501-2.049,2.815   c0,1.632,1.328,2.96,2.96,2.96s2.96-1.328,2.96-2.96c0-1.314-0.861-2.43-2.049-2.815v-3.339l6.771-3.308   c0.017-0.008,0.031-0.02,0.047-0.029c0.029-0.017,0.058-0.033,0.085-0.053c0.024-0.017,0.045-0.036,0.067-0.055   c0.022-0.02,0.044-0.039,0.064-0.061c0.021-0.022,0.039-0.045,0.057-0.069c0.018-0.023,0.035-0.046,0.051-0.071   c0.015-0.025,0.028-0.05,0.041-0.076c0.013-0.027,0.026-0.053,0.037-0.082c0.01-0.028,0.018-0.055,0.026-0.084   c0.008-0.028,0.015-0.056,0.02-0.085c0.006-0.033,0.008-0.066,0.01-0.099c0.001-0.019,0.006-0.037,0.006-0.056v-10.764   C245.685,254.379,245.276,253.971,244.773,253.971z M238.627,275.927c0,0.627-0.51,1.137-1.137,1.137s-1.137-0.51-1.137-1.137   c0-0.627,0.51-1.137,1.137-1.137S238.627,275.3,238.627,275.927z"/><path d="M260.615,253.971c-0.504,0-0.912,0.408-0.912,0.912v10.764c0,0.016,0.004,0.031,0.005,0.047   c0.002,0.038,0.005,0.075,0.011,0.112c0.004,0.025,0.011,0.049,0.018,0.073c0.009,0.032,0.018,0.064,0.03,0.095   c0.01,0.025,0.021,0.048,0.033,0.072c0.014,0.029,0.029,0.057,0.046,0.085c0.014,0.022,0.029,0.042,0.045,0.063   c0.02,0.026,0.04,0.052,0.062,0.075c0.018,0.02,0.038,0.037,0.058,0.055c0.023,0.021,0.047,0.041,0.073,0.06   c0.025,0.018,0.052,0.034,0.079,0.049c0.018,0.01,0.033,0.023,0.051,0.032l6.771,3.308v3.339c-1.187,0.385-2.049,1.501-2.049,2.815   c0,1.632,1.328,2.96,2.96,2.96s2.96-1.328,2.96-2.96c0-1.314-0.861-2.43-2.049-2.815v-3.908c0-0.019-0.005-0.037-0.006-0.056   c-0.002-0.033-0.004-0.066-0.01-0.099c-0.005-0.029-0.013-0.057-0.02-0.085c-0.008-0.028-0.016-0.056-0.026-0.084   c-0.011-0.028-0.024-0.055-0.037-0.082c-0.013-0.026-0.026-0.051-0.041-0.076c-0.016-0.025-0.033-0.048-0.051-0.071   c-0.018-0.024-0.036-0.047-0.057-0.069c-0.02-0.022-0.042-0.041-0.064-0.061c-0.022-0.019-0.043-0.038-0.067-0.055   c-0.027-0.02-0.056-0.036-0.085-0.053c-0.016-0.009-0.03-0.021-0.048-0.03l-6.771-3.308v-10.195   C261.527,254.379,261.119,253.971,260.615,253.971z M267.898,274.79c0.627,0,1.137,0.51,1.137,1.137   c0,0.627-0.51,1.137-1.137,1.137c-0.627,0-1.137-0.51-1.137-1.137C266.761,275.3,267.271,274.79,267.898,274.79z"/><path d="M252.915,216.733c0.503,0,0.912-0.408,0.912-0.912v-3.139c0-0.503-0.408-0.912-0.912-0.912s-0.912,0.408-0.912,0.912v3.139   C252.003,216.325,252.411,216.733,252.915,216.733z"/><path d="M243.932,218.472c0.169,0.292,0.475,0.456,0.79,0.456c0.155,0,0.311-0.039,0.455-0.122   c0.436-0.252,0.585-0.809,0.334-1.245l-1.569-2.718c-0.252-0.436-0.81-0.586-1.245-0.334c-0.436,0.252-0.585,0.809-0.334,1.245   L243.932,218.472z"/><path d="M235.55,223.234l2.718,1.569c0.143,0.083,0.3,0.122,0.455,0.122c0.315,0,0.622-0.164,0.79-0.456   c0.252-0.436,0.102-0.993-0.334-1.245l-2.718-1.569c-0.436-0.252-0.994-0.102-1.245,0.334   C234.964,222.425,235.114,222.983,235.55,223.234z"/><path d="M267.106,224.926c0.155,0,0.311-0.039,0.455-0.122l2.719-1.569c0.436-0.252,0.585-0.809,0.334-1.245   c-0.252-0.436-0.809-0.586-1.245-0.334l-2.719,1.569c-0.436,0.252-0.585,0.809-0.334,1.245   C266.484,224.762,266.791,224.926,267.106,224.926z"/><path d="M260.651,218.806c0.144,0.083,0.3,0.122,0.455,0.122c0.315,0,0.621-0.163,0.79-0.456l1.57-2.718   c0.252-0.436,0.102-0.994-0.333-1.245c-0.436-0.252-0.993-0.102-1.245,0.333l-1.57,2.718   C260.066,217.997,260.215,218.554,260.651,218.806z"/><path d="M246.476,269.335c-0.503,0-0.912,0.408-0.912,0.912v9.56c-1.202,0.377-2.076,1.501-2.076,2.825   c0,1.632,1.328,2.96,2.96,2.96s2.96-1.328,2.96-2.96c0-1.304-0.849-2.412-2.022-2.805v-9.58   C247.387,269.743,246.979,269.335,246.476,269.335z M247.586,282.632c0,0.627-0.51,1.137-1.137,1.137s-1.137-0.51-1.137-1.137   c0-0.627,0.51-1.137,1.137-1.137S247.586,282.005,247.586,282.632z"/><path d="M253.686,279.652v-23.187c0-0.503-0.408-0.912-0.912-0.912s-0.912,0.408-0.912,0.912v23.187   c0,0.504,0.408,0.912,0.912,0.912S253.686,280.156,253.686,279.652z"/><path d="M258.161,270.247v9.57c-1.187,0.385-2.049,1.501-2.049,2.815c0,1.632,1.328,2.96,2.96,2.96s2.96-1.328,2.96-2.96   c0-1.314-0.861-2.43-2.049-2.815v-9.57c0-0.504-0.408-0.912-0.912-0.912S258.161,269.743,258.161,270.247z M260.21,282.632   c0,0.627-0.51,1.137-1.137,1.137s-1.137-0.51-1.137-1.137c0-0.627,0.51-1.137,1.137-1.137S260.21,282.005,260.21,282.632z"/></g><text x="206" y="321" fill="#000000" font-size="5px" font-weight="bold" font-family="'Helvetica Neue', Helvetica, Arial-Unicode, Arial, Sans-serif">Created by Cuby Design</text><text x="206" y="326" fill="#000000" font-size="5px" font-weight="bold" font-family="'Helvetica Neue', Helvetica, Arial-Unicode, Arial, Sans-serif">from the Noun Project</text></svg>