<svg xmlns="http://www.w3.org/2000/svg" xmlns:xlink="http://www.w3.org/1999/xlink" xmlns:sketch="http://www.bohemiancoding.com/sketch/ns" viewBox="0 0 30 37.5" version="1.1" x="0px" y="0px"><title>education_013-literature-book-reading-open-learn-study-school</title><desc>Created with Sketch.</desc><g stroke="none" stroke-width="1" fill="none" fill-rule="evenodd" sketch:type="MSPage"><g sketch:type="MSArtboardGroup" transform="translate(-135.000000, -90.000000)" fill="#000000"><path d="M139,97 L138,97 L138,113.290098 L150,115.690098 L150,114.309902 L139,112.109902 L139,97 Z M139,96 L137,96 L137,114.109902 L150.499174,116.809737 L163.998348,114.109902 L163.998348,96 L161.998348,96 L161.998348,93.5787768 L150.499174,95.8786116 L139,93.5787768 L139,96 Z M161.998348,97 L162.998348,97 L162.998348,113.290098 L151,115.689768 L151,114.309572 L161.998348,112.109902 L161.998348,97 Z M160.998348,111.290098 L151,113.289768 L151,96.7982504 L160.998348,94.7985807 L160.998348,111.290098 Z M140,111.290098 L149.998348,113.289768 L149.998348,96.7982504 L140,94.7985807 L140,111.290098 Z M153,99.2897677 L153,100.309572 L159,99.1095716 L159,98.0897677 L153,99.2897677 Z M153,102.289768 L153,103.309572 L159,102.109572 L159,101.089768 L153,102.289768 Z M153,105.289768 L153,106.309572 L159,105.109572 L159,104.089768 L153,105.289768 Z M153,108.289768 L153,109.309572 L159,108.109572 L159,107.089768 L153,108.289768 Z M148,99.2897677 L148,100.309572 L142,99.1095716 L142,98.0897677 L148,99.2897677 Z M148,102.289768 L148,103.309572 L142,102.109572 L142,101.089768 L148,102.289768 Z M148,105.289768 L148,106.309572 L142,105.109572 L142,104.089768 L148,105.289768 Z M148,108.289768 L148,109.309572 L142,108.109572 L142,107.089768 L148,108.289768 Z" sketch:type="MSShapeGroup"/></g></g><text x="0" y="45" fill="#000000" font-size="5px" font-weight="bold" font-family="'Helvetica Neue', Helvetica, Arial-Unicode, Arial, Sans-serif">Created by Pham Thi Dieu Linh</text><text x="0" y="50" fill="#000000" font-size="5px" font-weight="bold" font-family="'Helvetica Neue', Helvetica, Arial-Unicode, Arial, Sans-serif">from the Noun Project</text></svg>