<svg xmlns="http://www.w3.org/2000/svg" xmlns:xlink="http://www.w3.org/1999/xlink" version="1.1" x="0px" y="0px" viewBox="0 0 100 125" enable-background="new 0 0 100 100" xml:space="preserve"><g><g><rect x="57.832" y="24.156" fill="#000000" width="22.404" height="3.461"/></g><g><rect x="57.832" y="32.602" fill="#000000" width="22.404" height="3.461"/></g><g><rect x="57.832" y="41.048" fill="#000000" width="22.404" height="3.461"/></g><g><rect x="57.832" y="49.494" fill="#000000" width="22.404" height="3.461"/></g><g><rect x="57.832" y="57.94" fill="#000000" width="22.404" height="3.461"/></g><g><path fill="#000000" d="M48.261,70.47V26.293c0-1.289-0.208-2.371-0.571-3.306c-0.363-0.926-0.874-1.713-1.54-2.406    c-1.333-1.376-3.332-2.38-5.841-2.942c-1.67-0.381-3.548-0.571-5.547-0.571H13.655v50.944h26.195    c2.259,0.009,4.405,0.381,6.291,1.212C46.902,69.562,47.612,69.977,48.261,70.47z M94.999,20.461V84.55H56.412    c-0.614,1.09-1.765,1.843-3.115,1.843H50h-0.009h-3.297c-1.341,0-2.501-0.753-3.115-1.843H5.001V20.461h5.192v-5.123v-1.731    h24.568c2.484,0,4.872,0.26,7.044,0.831c2.181,0.58,4.162,1.471,5.798,2.795c0.935,0.753,1.739,1.662,2.388,2.691    c0.398-0.632,0.857-1.22,1.367-1.748c1.956-2.016,4.604-3.245,7.563-3.92c1.973-0.441,4.102-0.649,6.309-0.649h22.846h1.731v6.854    H94.999z M91.538,81.088V23.922h-1.731v55.435H51.722h-3.453H10.193V23.922H8.462v57.166h38.119v1.731l0.112,0.112h3.297H50h3.297    l0.121-0.112v-1.731H91.538z M86.345,75.896v-4.422H60.151c-1.869,0-3.565,0.329-4.898,0.917    c-1.333,0.597-2.285,1.419-2.864,2.475c-0.173,0.312-0.312,0.658-0.415,1.03H86.345z M86.345,68.013V17.068H65.231    c-2.241,0-4.344,0.234-6.161,0.718c-1.817,0.476-3.34,1.203-4.5,2.137c-0.77,0.623-1.393,1.341-1.852,2.181    c-0.614,1.116-0.978,2.475-0.987,4.188v44.186c0.113-0.087,0.225-0.182,0.346-0.26c2.224-1.54,5.062-2.198,8.074-2.207H86.345z     M48.027,75.896c-0.113-0.372-0.251-0.718-0.415-1.03c-0.389-0.71-0.943-1.307-1.661-1.809c-1.437-0.995-3.609-1.584-6.101-1.584    H13.655v4.422H48.027z"/></g><g><rect x="19.375" y="57.94" fill="#000000" width="22.396" height="3.461"/></g><g><rect x="19.375" y="49.494" fill="#000000" width="22.396" height="3.461"/></g><g><rect x="19.375" y="41.048" fill="#000000" width="22.396" height="3.461"/></g><g><rect x="19.375" y="32.602" fill="#000000" width="22.396" height="3.461"/></g><g><rect x="19.375" y="24.156" fill="#000000" width="22.396" height="3.461"/></g></g><text x="0" y="115" fill="#000000" font-size="5px" font-weight="bold" font-family="'Helvetica Neue', Helvetica, Arial-Unicode, Arial, Sans-serif">Created by Viktor Ostrovsky</text><text x="0" y="120" fill="#000000" font-size="5px" font-weight="bold" font-family="'Helvetica Neue', Helvetica, Arial-Unicode, Arial, Sans-serif">from the Noun Project</text></svg>