<svg xmlns="http://www.w3.org/2000/svg" xmlns:xlink="http://www.w3.org/1999/xlink" version="1.1" x="0px" y="0px" viewBox="0 0 100 125" enable-background="new 0 0 100 100" xml:space="preserve"><path d="M84.993,36.273c-0.335-0.17-0.738-0.138-1.043,0.084c-0.035,0.026-3.633,2.62-10.239,4.593  c-1.845,0.551-4.085,0.927-6.456,1.326c-6.002,1.008-12.758,2.146-17.305,6.589c-0.01,0-0.018-0.006-0.028-0.006  s-0.018,0.005-0.028,0.006c-4.547-4.444-11.303-5.581-17.304-6.589c-2.371-0.399-4.611-0.775-6.456-1.326  c-6.606-1.974-10.204-4.567-10.239-4.593c-0.303-0.222-0.707-0.255-1.043-0.084s-0.548,0.515-0.548,0.891v44.188  c0,0.395,0.232,0.752,0.593,0.913c3.296,1.471,7.988,1.42,12.947,1.362c7.415-0.08,15.816-0.178,21.42,4.724  c0.188,0.165,0.424,0.247,0.658,0.247c0.243,0,0.487-0.089,0.679-0.266c4.822-4.451,12.19-4.22,19.316-3.993  c5.815,0.182,11.306,0.357,15.153-2.043c0.293-0.183,0.471-0.504,0.471-0.849V37.164C85.541,36.788,85.329,36.443,84.993,36.273z   M27.822,81.627c-4.431,0.05-8.625,0.097-11.519-0.95V38.979c1.729,1.001,4.842,2.569,9.258,3.888  c1.964,0.587,4.263,0.973,6.697,1.382c5.907,0.993,12.579,2.124,16.663,6.497v34.818c-5.191-3.532-11.809-3.96-18.078-3.96  C29.824,81.604,28.814,81.616,27.822,81.627z M83.541,80.871c-3.341,1.79-8.313,1.631-13.561,1.469  c-6.469-0.207-13.719-0.433-19.059,3.193V50.746c4.085-4.373,10.758-5.504,16.664-6.497c2.435-0.409,4.733-0.795,6.697-1.382  c4.416-1.319,7.529-2.887,9.258-3.888V80.871z M49.943,91.573c-0.552,0-1.104-0.146-1.596-0.438  c-7.506-4.453-14.559-4.104-22.029-3.733c-4.661,0.231-9.48,0.47-14.423-0.546c-0.465-0.096-0.799-0.505-0.799-0.979V45.248  c0-0.552,0.447-1,1-1s1,0.448,1,1V85.05c4.429,0.786,8.846,0.566,13.123,0.354c7.437-0.37,15.125-0.749,23.148,4.011  c0.359,0.215,0.79,0.216,1.149,0c8.025-4.762,15.708-4.38,23.135-4.011c4.275,0.212,8.688,0.432,13.116-0.354V45.248  c0-0.552,0.447-1,1-1s1,0.448,1,1v40.629c0,0.475-0.334,0.884-0.799,0.979c-4.945,1.016-9.762,0.777-14.417,0.546  c-7.461-0.371-14.509-0.721-22.014,3.733C51.047,91.428,50.495,91.573,49.943,91.573z M49.922,95.608  c-3.063,0-4.991-1.189-5.069-3.114c-7.394-2.62-18.5-1.56-28.336-0.622c-2.63,0.251-5.113,0.488-7.529,0.663  c-0.283,0.018-0.549-0.075-0.753-0.265s-0.319-0.455-0.319-0.732V49.997c0-0.552,0.447-1,1-1s1,0.448,1,1v40.462  c2.059-0.162,4.183-0.365,6.411-0.577c10.891-1.04,22.15-2.115,29.979,1.024c0.496,0.198,0.748,0.753,0.572,1.258  c-0.02,0.055-0.028,0.12-0.028,0.207c0,0.851,1.593,1.237,3.072,1.237c1.54,0,3.099-0.425,3.099-1.237  c0-0.08-0.014-0.165-0.044-0.267c-0.145-0.494,0.11-1.019,0.589-1.21c7.837-3.129,19.091-2.056,29.979-1.014  c2.229,0.213,4.353,0.416,6.411,0.578V49.997c0-0.552,0.447-1,1-1s1,0.448,1,1v41.542c0,0.277-0.115,0.543-0.319,0.732  s-0.474,0.283-0.753,0.265c-2.415-0.175-4.899-0.412-7.529-0.663c-9.832-0.941-20.935-2.001-28.335,0.612  C54.945,94.415,53.007,95.608,49.922,95.608z M42.68,77.377c-0.105,0-0.213-0.017-0.318-0.052  c-4.174-1.401-8.876-1.587-13.423-1.767c-1.266-0.05-2.503-0.099-3.691-0.174c-1.324-0.085-2.483-0.188-3.546-0.314  c-0.549-0.065-0.94-0.563-0.875-1.111c0.065-0.549,0.564-0.945,1.111-0.875c1.026,0.122,2.15,0.222,3.437,0.305  c1.172,0.074,2.394,0.122,3.643,0.171c4.47,0.177,9.535,0.377,13.981,1.869c0.523,0.176,0.806,0.743,0.63,1.267  C43.487,77.113,43.098,77.377,42.68,77.377z M42.68,69.777c-0.11,0-0.222-0.018-0.332-0.057c-3.849-1.354-8.156-1.692-12.323-2.02  c-1.729-0.136-3.36-0.265-4.912-0.462c-1.34-0.176-2.48-0.359-3.489-0.562c-0.541-0.108-0.893-0.635-0.784-1.177  c0.107-0.542,0.639-0.895,1.177-0.784c0.965,0.192,2.062,0.369,3.354,0.539c1.5,0.191,3.108,0.317,4.813,0.451  c4.094,0.322,8.735,0.687,12.83,2.127c0.521,0.184,0.795,0.754,0.611,1.275C43.479,69.521,43.092,69.777,42.68,69.777z   M42.68,62.167c-0.116,0-0.233-0.02-0.348-0.063c-3.648-1.354-7.726-1.809-11.668-2.248c-2.023-0.226-3.935-0.438-5.688-0.766  c-1.166-0.223-2.31-0.476-3.403-0.755c-0.535-0.136-0.858-0.681-0.722-1.216c0.137-0.536,0.681-0.86,1.216-0.722  c1.054,0.269,2.157,0.513,3.28,0.727c1.678,0.313,3.553,0.522,5.539,0.743c3.873,0.432,8.264,0.921,12.142,2.361  c0.519,0.192,0.782,0.768,0.59,1.285C43.468,61.918,43.086,62.167,42.68,62.167z M42.68,54.547c-0.122,0-0.245-0.022-0.365-0.069  c-3.521-1.381-7.451-1.934-11.252-2.467c-2.233-0.314-4.343-0.61-6.209-1.062c-1.197-0.294-2.32-0.611-3.342-0.94  c-0.525-0.17-0.813-0.733-0.644-1.259s0.729-0.813,1.259-0.645c0.976,0.315,2.053,0.618,3.2,0.9c1.769,0.428,3.83,0.717,6.014,1.024  c3.732,0.524,7.963,1.119,11.704,2.586c0.514,0.201,0.768,0.781,0.565,1.296C43.456,54.307,43.079,54.547,42.68,54.547z   M56.114,77.377c-0.418,0-0.808-0.264-0.948-0.682c-0.176-0.523,0.106-1.091,0.63-1.267c4.445-1.492,9.511-1.692,13.98-1.869  c1.25-0.049,2.472-0.097,3.646-0.171c1.284-0.083,2.408-0.183,3.435-0.305c0.554-0.071,1.046,0.326,1.111,0.875  c0.065,0.548-0.326,1.046-0.875,1.111c-1.063,0.126-2.222,0.229-3.544,0.314c-1.19,0.075-2.428,0.124-3.693,0.174  c-4.547,0.18-9.249,0.365-13.423,1.767C56.327,77.36,56.22,77.377,56.114,77.377z M56.114,69.777c-0.412,0-0.799-0.257-0.943-0.668  c-0.184-0.521,0.091-1.092,0.611-1.275c4.095-1.44,8.736-1.805,12.83-2.127c1.704-0.134,3.313-0.26,4.815-0.452  c1.289-0.169,2.386-0.346,3.351-0.538c0.551-0.113,1.068,0.243,1.177,0.784c0.108,0.542-0.243,1.068-0.784,1.177  c-1.009,0.202-2.149,0.386-3.486,0.561c-1.555,0.198-3.187,0.327-4.915,0.463c-4.167,0.327-8.475,0.666-12.323,2.02  C56.336,69.76,56.225,69.777,56.114,69.777z M56.114,62.167c-0.406,0-0.788-0.249-0.938-0.651c-0.192-0.519,0.071-1.094,0.589-1.286  c3.879-1.44,8.27-1.93,12.143-2.361c1.986-0.221,3.861-0.43,5.543-0.744c1.115-0.212,2.219-0.457,3.276-0.726  c0.533-0.138,1.079,0.186,1.216,0.722c0.137,0.535-0.187,1.08-0.722,1.216c-1.098,0.279-2.241,0.533-3.399,0.754  c-1.758,0.328-3.669,0.541-5.692,0.767c-3.942,0.439-8.02,0.894-11.667,2.248C56.348,62.147,56.23,62.167,56.114,62.167z   M56.114,54.547c-0.399,0-0.776-0.24-0.931-0.635c-0.202-0.514,0.052-1.095,0.565-1.296c3.74-1.468,7.971-2.062,11.703-2.586  c2.184-0.307,4.246-0.596,6.017-1.025c1.145-0.281,2.222-0.584,3.198-0.899c0.53-0.168,1.089,0.119,1.259,0.645  s-0.118,1.089-0.644,1.259c-1.022,0.33-2.146,0.646-3.34,0.939c-1.869,0.452-3.979,0.748-6.212,1.063  c-3.8,0.533-7.729,1.086-11.251,2.467C56.359,54.524,56.236,54.547,56.114,54.547z"/><path d="M74.287,32.027h-5.502c-0.553,0-1-0.448-1-1s0.447-1,1-1h5.502c0.553,0,1,0.448,1,1S74.84,32.027,74.287,32.027z   M66.745,22.43l4.769-2.751c0.479-0.276,0.643-0.888,0.366-1.366c-0.277-0.479-0.89-0.643-1.366-0.367l-4.769,2.751  c-0.479,0.276-0.643,0.888-0.366,1.366c0.186,0.321,0.521,0.5,0.867,0.5C66.416,22.564,66.588,22.521,66.745,22.43z M60.188,15.149  l2.751-4.768c0.276-0.478,0.112-1.09-0.366-1.366c-0.478-0.277-1.09-0.113-1.366,0.367l-2.751,4.768  c-0.276,0.478-0.112,1.09,0.366,1.366c0.157,0.091,0.329,0.134,0.499,0.134C59.667,15.65,60.003,15.471,60.188,15.149z   M50.868,12.11V6.608c0-0.552-0.447-1-1-1s-1,0.448-1,1v5.502c0,0.552,0.447,1,1,1S50.868,12.662,50.868,12.11z M40.904,15.516  c0.479-0.276,0.643-0.888,0.366-1.366L38.52,9.382c-0.277-0.479-0.89-0.644-1.366-0.367c-0.479,0.276-0.643,0.888-0.366,1.366  l2.751,4.768c0.186,0.321,0.521,0.5,0.867,0.5C40.575,15.65,40.747,15.607,40.904,15.516z M34.356,22.063  c0.276-0.478,0.112-1.09-0.366-1.366l-4.769-2.751c-0.48-0.276-1.09-0.113-1.366,0.367c-0.276,0.478-0.112,1.09,0.366,1.366  l4.769,2.751c0.158,0.091,0.329,0.134,0.499,0.134C33.835,22.564,34.171,22.385,34.356,22.063z M31.95,31.027c0-0.552-0.447-1-1-1  h-5.502c-0.553,0-1,0.448-1,1s0.447,1,1,1h5.502C31.503,32.027,31.95,31.58,31.95,31.027z M50.541,42.193  c0.031-0.028,3.169-2.888,8.312-7.332c4.339-3.75,4.634-7.9,3.464-10.534c-1.205-2.714-4.014-4.218-7.154-3.828  c-1.502,0.186-3.556,1.002-5.317,3.689c-1.842-2.685-3.927-3.502-5.442-3.689c-3.071-0.379-5.712,1.01-6.877,3.631  c-1.125,2.532-0.85,6.861,3.626,10.731c5.121,4.425,7.981,7.272,8.01,7.3c0.194,0.195,0.45,0.292,0.706,0.292  C50.108,42.454,50.35,42.367,50.541,42.193z M44.156,22.484c1.834,0.228,3.479,1.62,4.757,4.027l0.093,0.17  c0.18,0.305,0.507,0.492,0.86,0.493h0.001c0.354,0,0.681-0.187,0.86-0.491c0.025-0.042,0.067-0.122,0.122-0.232  c1.211-2.407,2.745-3.741,4.559-3.966c2.279-0.282,4.229,0.735,5.081,2.655c0.879,1.979,0.566,5.174-2.945,8.209  c-3.756,3.247-6.45,5.653-7.651,6.735c-1.144-1.1-3.695-3.505-7.433-6.734c-3.648-3.154-3.954-6.499-3.107-8.406  c0.704-1.584,2.231-2.504,4.082-2.504C43.67,22.439,43.911,22.454,44.156,22.484z"/><text x="0" y="115" fill="#000000" font-size="5px" font-weight="bold" font-family="'Helvetica Neue', Helvetica, Arial-Unicode, Arial, Sans-serif">Created by  Laymik</text><text x="0" y="120" fill="#000000" font-size="5px" font-weight="bold" font-family="'Helvetica Neue', Helvetica, Arial-Unicode, Arial, Sans-serif">from the Noun Project</text></svg>