<svg xmlns="http://www.w3.org/2000/svg" viewBox="0 0 64 80" x="0px" y="0px"><title>E-learning-Education-Online</title><g><rect x="31" y="42" width="2" height="2"/><path d="M57,8H53a4,4,0,0,0-4-4H47a1,1,0,0,0-1,1V8H36a1,1,0,0,0-.707.293L32,11.586,28.707,8.293A1,1,0,0,0,28,8H7A1,1,0,0,0,6,9V44a4,4,0,0,0,4,4H24.382l-4,8H15a3,3,0,0,0,0,6H49a3,3,0,0,0,0-6H43.618l-4-8H54a4,4,0,0,0,4-4V9A1,1,0,0,0,57,8ZM48,6h1a2,2,0,0,1,2,2V28.537A3.97,3.97,0,0,0,49,28H48ZM33,13.414,36.414,10H46v3H42v2h4v2H36v2H46v2H36v2H46v2H36v2H46v2a1,1,0,0,0,1,1h2a2,2,0,0,1,0,4H36a1,1,0,0,0-.707.293L33,36.586ZM8,10H27.586L31,13.414V36.586l-2.293-2.293A1,1,0,0,0,28,34H8ZM8,36H27.586l2,2H8ZM49,58a1,1,0,0,1,0,2H15a1,1,0,0,1,0-2Zm-7.618-2H22.618l4-8H37.382ZM56,44a2,2,0,0,1-2,2H10a2,2,0,0,1-2-2V40H56Zm0-6H34.414l2-2H56Zm0-4H52.444A3.959,3.959,0,0,0,53,32V10h3Z"/><rect x="13" y="13" width="2" height="2"/><rect x="11" y="17" width="17" height="2"/><rect x="11" y="21" width="17" height="2"/><rect x="11" y="25" width="17" height="2"/><rect x="11" y="29" width="13" height="2"/><rect x="17" y="13" width="11" height="2"/><rect x="38" y="13" width="2" height="2"/><rect x="36" y="29" width="7" height="2"/><path d="M12,50H9a5.006,5.006,0,0,1-5-5V33H2V45a7.008,7.008,0,0,0,7,7h3Z"/><rect x="2" y="29" width="2" height="2"/><rect x="60" y="12" width="2" height="21"/><rect x="60" y="35" width="2" height="2"/></g><text x="0" y="79" fill="#000000" font-size="5px" font-weight="bold" font-family="'Helvetica Neue', Helvetica, Arial-Unicode, Arial, Sans-serif">Created by Nhor</text><text x="0" y="84" fill="#000000" font-size="5px" font-weight="bold" font-family="'Helvetica Neue', Helvetica, Arial-Unicode, Arial, Sans-serif">from the Noun Project</text></svg>