<?xml version="1.0" encoding="UTF-8" standalone="no"?>
<svg
   xmlns:dc="http://purl.org/dc/elements/1.1/"
   xmlns:cc="http://creativecommons.org/ns#"
   xmlns:rdf="http://www.w3.org/1999/02/22-rdf-syntax-ns#"
   xmlns:svg="http://www.w3.org/2000/svg"
   xmlns="http://www.w3.org/2000/svg"
   xmlns:sodipodi="http://sodipodi.sourceforge.net/DTD/sodipodi-0.dtd"
   xmlns:inkscape="http://www.inkscape.org/namespaces/inkscape"
   viewBox="0 0 64 80"
   x="0px"
   y="0px"
   version="1.1"
   id="svg1416"
   sodipodi:docname="noun_knowledge_1438602.svg"
   inkscape:version="0.92.3 (2405546, 2018-03-11)">
  <metadata
     id="metadata1422">
    <rdf:RDF>
      <cc:Work
         rdf:about="">
        <dc:format>image/svg+xml</dc:format>
        <dc:type
           rdf:resource="http://purl.org/dc/dcmitype/StillImage" />
      </cc:Work>
    </rdf:RDF>
  </metadata>
  <defs
     id="defs1420" />
  <sodipodi:namedview
     pagecolor="#ffffff"
     bordercolor="#666666"
     borderopacity="1"
     objecttolerance="10"
     gridtolerance="10"
     guidetolerance="10"
     inkscape:pageopacity="0"
     inkscape:pageshadow="2"
     inkscape:window-width="1596"
     inkscape:window-height="1670"
     id="namedview1418"
     showgrid="false"
     inkscape:zoom="2.95"
     inkscape:cx="32"
     inkscape:cy="40"
     inkscape:window-x="25"
     inkscape:window-y="75"
     inkscape:window-maximized="0"
     inkscape:current-layer="svg1416" />
  <title
     id="title1358">004-icon-design</title>
  <g
     id="g1410">
    <path
       d="M41,56h2a1,1,0,0,0,0-2H8A5,5,0,0,0,8,64H43a1,1,0,0,0,0-2H41a3,3,0,0,1,0-6ZM8,62a3,3,0,0,1,0-6H37a4.9,4.9,0,0,0,0,6Z"
       id="path1360" />
    <path
       d="M33,58H8a1,1,0,0,0,0,2H33a1,1,0,0,0,0-2Z"
       id="path1362" />
    <path
       d="M48.55,23.42a1,1,0,0,0-.89-.66,1,1,0,0,0-.39.06,1,1,0,0,0-.6,1.28L47.34,26a3,3,0,1,1-5.65,2L41,26.13a1,1,0,1,0-1.88.68L51.29,60.69a5,5,0,1,0,9.41-3.38ZM58.71,60.28A3,3,0,0,1,53.18,60L43,31.77a4.94,4.94,0,0,0,5.64-2L58.82,58A3,3,0,0,1,58.71,60.28Z"
       id="path1364" />
    <path
       d="M48.16,34.19a1,1,0,0,0-1.88.68l8.78,24.47a1,1,0,1,0,1.88-.68Z"
       id="path1366" />
    <path
       d="M39,42H10a1,1,0,0,0,0,2h2a3,3,0,0,1,0,6H10a1,1,0,0,0,0,2H39a5,5,0,0,0,0-10Zm0,8H16a4.9,4.9,0,0,0,0-6H39a3,3,0,0,1,0,6Z"
       id="path1368" />
    <path
       d="M39,46H20a1,1,0,0,0,0,2H39a1,1,0,0,0,0-2Z"
       id="path1370" />
    <path
       d="M15,40H37a1,1,0,0,0,0-2H35a3,3,0,0,1,0-6h2a1,1,0,0,0,0-2H15a5,5,0,0,0,0,10Zm0-8H31a4.9,4.9,0,0,0,0,6H15a3,3,0,0,1,0-6Z"
       id="path1372" />
    <path
       d="M15,36H27a1,1,0,0,0,0-2H15a1,1,0,0,0,0,2Z"
       id="path1374" />
    <rect
       x="57"
       y="5"
       width="2"
       height="2"
       id="rect1376" />
    <rect
       x="59"
       y="3"
       width="2"
       height="2"
       id="rect1378" />
    <rect
       x="59"
       y="7"
       width="2"
       height="2"
       id="rect1380" />
    <rect
       x="61"
       y="5"
       width="2"
       height="2"
       id="rect1382" />
    <rect
       x="1"
       y="4"
       width="2"
       height="2"
       id="rect1384" />
    <rect
       x="3"
       y="2"
       width="2"
       height="2"
       id="rect1386" />
    <rect
       x="3"
       y="6"
       width="2"
       height="2"
       id="rect1388" />
    <rect
       x="5"
       y="4"
       width="2"
       height="2"
       id="rect1390" />
    <rect
       x="43"
       y="17"
       width="2"
       height="2"
       id="rect1392" />
    <rect
       x="37"
       y="1"
       width="2"
       height="2"
       id="rect1394" />
    <rect
       x="9"
       y="21"
       width="2"
       height="2"
       id="rect1396" />
    <rect
       x="13"
       width="2"
       height="2"
       id="rect1398" />
    <rect
       x="3"
       y="14"
       width="2"
       height="2"
       id="rect1400" />
    <rect
       x="46"
       y="6"
       width="2"
       height="2"
       id="rect1402" />
    <rect
       x="55"
       y="13"
       width="2"
       height="2"
       id="rect1404" />
    <path
       d="M20.68,23.12A3,3,0,0,0,20,25a3,3,0,0,0,3,3h4a3,3,0,0,0,3-3,3,3,0,0,0-.68-1.88,11,11,0,1,0-8.63,0ZM27,24a1,1,0,0,1,0,2H23a1,1,0,0,1,0-2ZM25,4a9,9,0,1,1-9,9A9,9,0,0,1,25,4Z"
       id="path1406" />
    <path
       d="M21,17a1,1,0,0,0,1-1V14h2v1a1,1,0,0,0,2,0V14h2v2a1,1,0,0,0,2,0V10a1,1,0,0,0-2,0v2H26V11a1,1,0,0,0-2,0v1H22V10a1,1,0,0,0-2,0v6A1,1,0,0,0,21,17Z"
       id="path1408" />
  </g>
</svg>
