<svg xmlns:dc="http://purl.org/dc/elements/1.1/" xmlns:cc="http://creativecommons.org/ns#" xmlns:rdf="http://www.w3.org/1999/02/22-rdf-syntax-ns#" xmlns:svg="http://www.w3.org/2000/svg" xmlns="http://www.w3.org/2000/svg" xmlns:sodipodi="http://sodipodi.sourceforge.net/DTD/sodipodi-0.dtd" xmlns:inkscape="http://www.inkscape.org/namespaces/inkscape" version="1.1" x="0px" y="0px" viewBox="0 0 100 125"><g transform="translate(0,-952.36218)"><path style="text-indent:0;text-transform:none;direction:ltr;block-progression:tb;baseline-shift:baseline;color:#000000;enable-background:accumulate;" d="m 40,974.36217 0,18 -18,0 c -1.0472,10e-5 -1.9999,0.95283 -2,2 l 0,16.00003 c 10e-5,1.0471 0.9528,1.9999 2,2 l 18,0 0,18 c 1e-4,1.0472 0.9528,1.9999 2,2 l 16,0 c 1.0472,-10e-5 1.9999,-0.9528 2,-2 l 0,-18 18,0 c 1.0472,-10e-5 1.9999,-0.9529 2,-2 l 0,-16.00003 c -1e-4,-1.04717 -0.9528,-1.9999 -2,-2 l -18,0 0,-18 c -1e-4,-1.04717 -0.9528,-1.9999 -2,-2 l -16,0 c -1.1135,0.007 -1.9754,1.09908 -2,2 z m 4,2 12,0 0,18 c 1e-4,1.04717 0.9528,1.9999 2,2 l 18,0 0,12.00003 -18,0 c -1.0472,10e-5 -1.9999,0.9528 -2,2 l 0,18 -12,0 0,-18 c -1e-4,-1.0472 -0.9528,-1.9999 -2,-2 l -18,0 0,-12.00003 18,0 c 1.0472,-10e-5 1.9999,-0.95283 2,-2 z" fill="#000000" fill-opacity="1" stroke="none" marker="none" visibility="visible" display="inline" overflow="visible"/></g><text x="0" y="115" fill="#000000" font-size="5px" font-weight="bold" font-family="'Helvetica Neue', Helvetica, Arial-Unicode, Arial, Sans-serif">Created by Barracuda</text><text x="0" y="120" fill="#000000" font-size="5px" font-weight="bold" font-family="'Helvetica Neue', Helvetica, Arial-Unicode, Arial, Sans-serif">from the Noun Project</text></svg>