<svg xmlns="http://www.w3.org/2000/svg" viewBox="0 0 64 80" x="0px" y="0px"><title>book-computer-monitor-screen-reading</title><g data-name="Layer 16"><path d="M62,55H59V27a4,4,0,0,0-4-4h-.617l4.346-12.074a4.989,4.989,0,1,0-5.581-6.082L48.9,4.136A4,4,0,0,0,41,5a3.951,3.951,0,0,0,.051.5l-7.26,6.352a4.99,4.99,0,0,0-6.87,7.019L24.563,23h-4.43L21.9,8.89a3.995,3.995,0,1,0-4.874-4.105L8.486,3.077A3.99,3.99,0,1,0,4.294,8.929L9.923,23H9a4,4,0,0,0-4,4V55H2a1,1,0,0,0-1,1v4a1,1,0,0,0,.553.9l4,2A1,1,0,0,0,6,63H58a1,1,0,0,0,.447-.1l4-2A1,1,0,0,0,63,60V56A1,1,0,0,0,62,55ZM58,3a3,3,0,1,1-3,3A3,3,0,0,1,58,3ZM48.812,6.149l4.275.713a4.99,4.99,0,0,0,3.565,3.93L52.257,23h-5.68L46.033,8.848A3.993,3.993,0,0,0,48.812,6.149ZM17.367,29l-.261,2.09a4.926,4.926,0,0,0-1.56.581L14.477,29Zm-3.69-2-.8-2h4.99l-.25,2Zm31.13,2,.158,4.111a5.01,5.01,0,0,0-3.837,3.8l-18.22-1.822a4.984,4.984,0,0,0-1.427-2.663L23.437,29ZM24.58,27l1.143-2h18.93l.077,2ZM49,38a3,3,0,1,1-3-3A3,3,0,0,1,49,38ZM33.836,43.189A9.024,9.024,0,0,1,39.478,47H35.331A19.031,19.031,0,0,0,33.836,43.189ZM28.669,47H24.522a9.024,9.024,0,0,1,5.642-3.811A19.031,19.031,0,0,0,28.669,47Zm10.447-3.373a10.961,10.961,0,0,0-14.15-.075L21.213,39.8a4.984,4.984,0,0,0,1.659-2.707l18.22,1.822a4.961,4.961,0,0,0,1.082,2.266ZM18,33a3,3,0,1,1-3,3A3,3,0,0,1,18,33Zm1.793-1.653a4.835,4.835,0,0,0-.677-.211L19.383,29h1.751Zm-5.837,1.737a4.954,4.954,0,0,0,5.415,7.7l4.181,4.181A10.946,10.946,0,0,0,21.051,51H11V29h1.323ZM23.525,49h4.721a19.067,19.067,0,0,0-.213,2H23.059A8.869,8.869,0,0,1,23.525,49ZM32,43.985A17.018,17.018,0,0,1,33.969,51H30.03A17.008,17.008,0,0,1,32,43.985ZM35.967,51a19.067,19.067,0,0,0-.213-2h4.721a8.869,8.869,0,0,1,.466,2Zm6.982,0a10.939,10.939,0,0,0-2.424-5.939l3.255-2.6A4.942,4.942,0,0,0,46,43a5.006,5.006,0,0,0,5-5,4.951,4.951,0,0,0-.964-2.925L52.223,29H53V51Zm5.473-17.347a4.95,4.95,0,0,0-1.456-.555L46.808,29H50.1ZM46.731,27l-.077-2h4.883l-.72,2ZM45,3a2,2,0,1,1-2,2A2,2,0,0,1,45,3ZM31,13a3,3,0,1,1-3,3A3,3,0,0,1,31,13Zm-2.572,7.266A4.951,4.951,0,0,0,31,21a4.986,4.986,0,0,0,4.189-7.712L41.862,7.45a3.98,3.98,0,0,0,2.171,1.418L44.576,23H26.866ZM23.42,25l-1.143,2H19.633l.25-2ZM21,3a2,2,0,1,1-2,2A2,2,0,0,1,21,3ZM3,5A2,2,0,1,1,5,7,2,2,0,0,1,3,5ZM6.374,8.742a3.987,3.987,0,0,0,2.6-3.527l8.536,1.708a4,4,0,0,0,2.375,1.9L18.117,23h-6.04ZM7,27a2,2,0,0,1,2-2h1.723l.8,2H10a1,1,0,0,0-1,1V52a1,1,0,0,0,1,1H54a1,1,0,0,0,1-1V28a1,1,0,0,0-1-1H52.943l.72-2H55a2,2,0,0,1,2,2V55H7ZM61,59.382,57.764,61H6.236L3,59.382V57H61Z"/></g><text x="0" y="79" fill="#000000" font-size="5px" font-weight="bold" font-family="'Helvetica Neue', Helvetica, Arial-Unicode, Arial, Sans-serif">Created by Templet</text><text x="0" y="84" fill="#000000" font-size="5px" font-weight="bold" font-family="'Helvetica Neue', Helvetica, Arial-Unicode, Arial, Sans-serif">from the Noun Project</text></svg>