<svg xmlns="http://www.w3.org/2000/svg" viewBox="0 0 64 80" x="0px" y="0px"><title>seo-Rank-development-website</title><g><rect x="29" y="11" width="27" height="2"/><rect x="29" y="15" width="17" height="2"/><rect x="29" y="19" width="17" height="2"/><rect x="37" y="7" width="19" height="2"/><rect x="33" y="7" width="2" height="2"/><rect x="31" y="42" width="2" height="2"/><path d="M17.293,12.707l1.414-1.414L17.414,10l1.293-1.293L17.293,7.293l-2,2a1,1,0,0,0,0,1.414Z"/><path d="M24.707,12.707l2-2a1,1,0,0,0,0-1.414l-2-2L23.293,8.707,24.586,10l-1.293,1.293Z"/><rect x="17.838" y="9" width="6.325" height="1.999" transform="translate(4.867 26.755) rotate(-71.547)"/><polygon points="54 25 52 25 52 33 50 33 50 23 48 23 48 33 46 33 46 28 44 28 44 33 42 33 42 27 40 27 40 33 38 33 38 29 36 29 36 33 34 33 34 35 56 35 56 33 54 33 54 25"/><path d="M3,39v3a6.006,6.006,0,0,0,6,6H21.382l-4,8H12a3,3,0,0,0,0,6H52a3,3,0,0,0,0-6H46.618l-4-8H55a6.006,6.006,0,0,0,6-6V8a6.006,6.006,0,0,0-6-6H9A6.006,6.006,0,0,0,3,8V27.626l0,.009ZM23.2,27.917l.947,2.911a1,1,0,0,0,.575.618L28,32.775v2.36l-3.28,1.329a.994.994,0,0,0-.575.619l-.3.917H18.084A9.415,9.415,0,0,0,5,25.721V16.07H5l2.273,2.706a1,1,0,0,0,.766.357H11.1a1,1,0,0,0,.766-.357l2.274-2.706,2.244.729.248,3.523a1,1,0,0,0,.409.739l2.477,1.8a1.006,1.006,0,0,0,.83.161l3.433-.853,1.388,1.909-1.871,3A1,1,0,0,0,23.2,27.917ZM5,38V28.1A7.428,7.428,0,0,1,15.8,38ZM53,59a1,1,0,0,1-1,1H12a1,1,0,0,1,0-2H52A1,1,0,0,1,53,59Zm-8.618-3H19.618l4-8H40.382ZM55,46H9a4,4,0,0,1-4-4V40l11.322,0,.009,0H59v2A4,4,0,0,1,55,46ZM9,4H55a4,4,0,0,1,4,4V38H26.255l3.121-1.265A1,1,0,0,0,30,35.809V32.1a1,1,0,0,0-.624-.927L25.9,29.767l-.658-2.025,1.982-3.18a1,1,0,0,0-.04-1.116l-2.18-3a1,1,0,0,0-1.05-.383l-3.636.9L18.6,19.715l-.263-3.73a1,1,0,0,0-.689-.881l-3.525-1.146a1.008,1.008,0,0,0-1.075.309l-2.407,2.865H8.508L6.1,14.267a1.008,1.008,0,0,0-1.076-.309L5,13.967V8A4,4,0,0,1,9,4Z"/></g><text x="0" y="79" fill="#000000" font-size="5px" font-weight="bold" font-family="'Helvetica Neue', Helvetica, Arial-Unicode, Arial, Sans-serif">Created by Nhor</text><text x="0" y="84" fill="#000000" font-size="5px" font-weight="bold" font-family="'Helvetica Neue', Helvetica, Arial-Unicode, Arial, Sans-serif">from the Noun Project</text></svg>