<?xml version="1.0" encoding="UTF-8" standalone="no"?>
<svg
   xmlns:dc="http://purl.org/dc/elements/1.1/"
   xmlns:cc="http://creativecommons.org/ns#"
   xmlns:rdf="http://www.w3.org/1999/02/22-rdf-syntax-ns#"
   xmlns:svg="http://www.w3.org/2000/svg"
   xmlns="http://www.w3.org/2000/svg"
   xmlns:sodipodi="http://sodipodi.sourceforge.net/DTD/sodipodi-0.dtd"
   xmlns:inkscape="http://www.inkscape.org/namespaces/inkscape"
   viewBox="0 0 64 80"
   x="0px"
   y="0px"
   version="1.1"
   id="svg807"
   sodipodi:docname="noun_education_1909997.svg"
   inkscape:version="0.92.3 (2405546, 2018-03-11)">
  <metadata
     id="metadata813">
    <rdf:RDF>
      <cc:Work
         rdf:about="">
        <dc:format>image/svg+xml</dc:format>
        <dc:type
           rdf:resource="http://purl.org/dc/dcmitype/StillImage" />
      </cc:Work>
    </rdf:RDF>
  </metadata>
  <defs
     id="defs811" />
  <sodipodi:namedview
     pagecolor="#ffffff"
     bordercolor="#666666"
     borderopacity="1"
     objecttolerance="10"
     gridtolerance="10"
     guidetolerance="10"
     inkscape:pageopacity="0"
     inkscape:pageshadow="2"
     inkscape:window-width="1596"
     inkscape:window-height="1670"
     id="namedview809"
     showgrid="false"
     inkscape:zoom="2.95"
     inkscape:cx="32"
     inkscape:cy="40"
     inkscape:window-x="25"
     inkscape:window-y="75"
     inkscape:window-maximized="0"
     inkscape:current-layer="svg807" />
  <title
     id="title765">Education-Knowledge-idea-knowhow</title>
  <g
     id="g801">
    <path
       d="M61,19H57V17a1,1,0,0,0-1-1H46.851a14.983,14.983,0,0,0-29.7,0H8a1,1,0,0,0-1,1v2H3a1,1,0,0,0-1,1V60a1,1,0,0,0,1,1H61a1,1,0,0,0,1-1V20A1,1,0,0,0,61,19ZM47,18h8V50H36a1,1,0,0,0-.707.293L33,52.586V43h6a1,1,0,0,0,1-1V34a1,1,0,0,0-1-1H38V31.735A15.089,15.089,0,0,0,47,18Zm8,34v2H34.414l2-2ZM31,23V21h2v2h2V21h2v2.382l-5,2.5-5-2.5V21h2v2Zm7,16v2H26V39ZM26,37V35H38v2ZM32,5a12.993,12.993,0,0,1,4.642,25.131,1,1,0,0,0-.642.933V33H33V27.618L38.447,24.9A1,1,0,0,0,39,24V21h2V19H39V15H37v4H35V17H33v2H31V17H29v2H27V15H25v4H23v2h2v3a1,1,0,0,0,.553.895L31,27.618V33H28V31.064a1,1,0,0,0-.642-.933A12.993,12.993,0,0,1,32,5ZM9,18h8a15.089,15.089,0,0,0,9,13.735V33H25a1,1,0,0,0-1,1v8a1,1,0,0,0,1,1h6v9.586l-2.293-2.293A1,1,0,0,0,28,50H9ZM9,52H27.586l2,2H9Zm51,7H4V21H7V55a1,1,0,0,0,1,1H56a1,1,0,0,0,1-1V21h3Z"
       id="path767" />
    <rect
       x="12"
       y="29"
       width="6"
       height="2"
       id="rect769" />
    <rect
       x="12"
       y="33"
       width="9"
       height="2"
       id="rect771" />
    <rect
       x="12"
       y="37"
       width="9"
       height="2"
       id="rect773" />
    <rect
       x="12"
       y="41"
       width="9"
       height="2"
       id="rect775" />
    <rect
       x="12"
       y="45"
       width="16"
       height="2"
       id="rect777" />
    <path
       d="M34.2,7.22A11.068,11.068,0,0,0,32,7V9a9.1,9.1,0,0,1,1.8.18Z"
       id="path779" />
    <path
       d="M30.2,9.18l-.4-1.96a10.936,10.936,0,0,0-5.656,3.08l1.428,1.4A8.957,8.957,0,0,1,30.2,9.18Z"
       id="path781" />
    <rect
       x="12"
       y="25"
       width="2"
       height="2"
       id="rect783" />
    <rect
       x="46"
       y="29"
       width="6"
       height="2"
       id="rect785" />
    <rect
       x="43"
       y="33"
       width="9"
       height="2"
       id="rect787" />
    <rect
       x="43"
       y="37"
       width="9"
       height="2"
       id="rect789" />
    <rect
       x="43"
       y="41"
       width="9"
       height="2"
       id="rect791" />
    <rect
       x="36"
       y="45"
       width="16"
       height="2"
       id="rect793" />
    <rect
       x="50"
       y="25"
       width="2"
       height="2"
       id="rect795" />
    <path
       d="M48.579,14.221l1.95-.442a18.693,18.693,0,0,0-.611-2.112l-1.885.666A17.055,17.055,0,0,1,48.579,14.221Z"
       id="path797" />
    <path
       d="M47.112,10.205l1.776-.918a19.1,19.1,0,0,0-6.382-7.12L41.4,3.833A17.094,17.094,0,0,1,47.112,10.205Z"
       id="path799" />
  </g>
</svg>
