<?xml version="1.0" encoding="UTF-8" standalone="no"?>
<svg
   xmlns:dc="http://purl.org/dc/elements/1.1/"
   xmlns:cc="http://creativecommons.org/ns#"
   xmlns:rdf="http://www.w3.org/1999/02/22-rdf-syntax-ns#"
   xmlns:svg="http://www.w3.org/2000/svg"
   xmlns="http://www.w3.org/2000/svg"
   xmlns:sodipodi="http://sodipodi.sourceforge.net/DTD/sodipodi-0.dtd"
   xmlns:inkscape="http://www.inkscape.org/namespaces/inkscape"
   viewBox="0 0 64 80"
   x="0px"
   y="0px"
   version="1.1"
   id="svg266"
   sodipodi:docname="noun_Book_1998739.svg"
   inkscape:version="0.92.3 (2405546, 2018-03-11)">
  <metadata
     id="metadata272">
    <rdf:RDF>
      <cc:Work
         rdf:about="">
        <dc:format>image/svg+xml</dc:format>
        <dc:type
           rdf:resource="http://purl.org/dc/dcmitype/StillImage" />
      </cc:Work>
    </rdf:RDF>
  </metadata>
  <defs
     id="defs270" />
  <sodipodi:namedview
     pagecolor="#ffffff"
     bordercolor="#666666"
     borderopacity="1"
     objecttolerance="10"
     gridtolerance="10"
     guidetolerance="10"
     inkscape:pageopacity="0"
     inkscape:pageshadow="2"
     inkscape:window-width="1596"
     inkscape:window-height="1670"
     id="namedview268"
     showgrid="false"
     inkscape:zoom="17.4125"
     inkscape:cx="32"
     inkscape:cy="30.811199"
     inkscape:window-x="25"
     inkscape:window-y="75"
     inkscape:window-maximized="1"
     inkscape:current-layer="svg266" />
  <title
     id="title254">Book</title>
  <g
     id="g260">
    <path
       d="M54,2H14A5.006,5.006,0,0,0,9,7V57a5.006,5.006,0,0,0,5,5H54a1,1,0,0,0,1-1V3A1,1,0,0,0,54,2ZM14,4H53V6H15V8H53v2H14a3,3,0,0,1,0-6ZM11,57V10.974a4.954,4.954,0,0,0,2,.925V59.816A3,3,0,0,1,11,57Zm4,3V12H53V60Z"
       id="path256" />
    <path
       d="M48,16H20a1,1,0,0,0-1,1V27a1,1,0,0,0,1,1H48a1,1,0,0,0,1-1V17A1,1,0,0,0,48,16ZM47,26H21V18H47Z"
       id="path258" />
  </g>
</svg>
