<svg xmlns="http://www.w3.org/2000/svg" xmlns:xlink="http://www.w3.org/1999/xlink" version="1.1" x="0px" y="0px" viewBox="0 0 64 80" enable-background="new 0 0 64 64" xml:space="preserve"><g><g><path d="M53.5,5h-42c-0.553,0-1,0.448-1,1s0.447,1,1,1H52v21c0,0.552,0.447,1,1,1s1-0.448,1-1V6C54,5.448,54.053,5,53.5,5z"/><path d="M39.5,35c0-0.552-0.447-1-1-1h-12c-0.553,0-1,0.448-1,1s0.447,1,1,1h12C39.053,36,39.5,35.552,39.5,35z"/><path d="M34.5,57h-14c-0.553,0-1,0.448-1,1s0.447,1,1,1h14c0.553,0,1-0.448,1-1S35.053,57,34.5,57z"/><path d="M50.5,55h3c0.553,0,0.5-0.448,0.5-1v-3c0-0.552-0.447-1-1-1s-1,0.448-1,1v2h-1.5c-0.553,0-1,0.448-1,1S49.947,55,50.5,55z    "/><path d="M44.5,55h2c0.553,0,1-0.448,1-1s-0.447-1-1-1h-2c-0.553,0-1,0.448-1,1S43.947,55,44.5,55z"/><path d="M44.5,51h2c0.553,0,1-0.448,1-1s-0.447-1-1-1h-2c-0.553,0-1,0.448-1,1S43.947,51,44.5,51z"/><path d="M40.5,53h-2c-0.553,0-1,0.448-1,1s0.447,1,1,1h2c0.553,0,1-0.448,1-1S41.053,53,40.5,53z"/><path d="M37.5,50c0,0.552,0.447,1,1,1h2c0.553,0,1-0.448,1-1s-0.447-1-1-1h-2C37.947,49,37.5,49.448,37.5,50z"/><path d="M34.5,53h-2c-0.553,0-1,0.448-1,1s0.447,1,1,1h2c0.553,0,1-0.448,1-1S35.053,53,34.5,53z"/><path d="M50.5,59h3c0.553,0,1-0.448,1-1s-0.447-1-1-1h-3c-0.553,0-1,0.448-1,1S49.947,59,50.5,59z"/><path d="M44.5,59h2c0.553,0,1-0.448,1-1s-0.447-1-1-1h-2c-0.553,0-1,0.448-1,1S43.947,59,44.5,59z"/><path d="M40.5,57h-2c-0.553,0-1,0.448-1,1s0.447,1,1,1h2c0.553,0,1-0.448,1-1S41.053,57,40.5,57z"/><path d="M34.5,49h-2c-0.553,0-1,0.448-1,1s0.447,1,1,1h2c0.553,0,1-0.448,1-1S35.053,49,34.5,49z"/><path d="M26.5,55h2c0.553,0,1-0.448,1-1s-0.447-1-1-1h-2c-0.553,0-1,0.448-1,1S25.947,55,26.5,55z"/><path d="M26.5,51h2c0.553,0,1-0.448,1-1s-0.447-1-1-1h-2c-0.553,0-1,0.448-1,1S25.947,51,26.5,51z"/><path d="M20.5,55h2c0.553,0,1-0.448,1-1s-0.447-1-1-1h-2c-0.553,0-1,0.448-1,1S19.947,55,20.5,55z"/><path d="M20.5,51h2c0.553,0,1-0.448,1-1s-0.447-1-1-1h-2c-0.553,0-1,0.448-1,1S19.947,51,20.5,51z"/><path d="M16.5,53h-5c-0.553,0-1,0.448-1,1s0.447,1,1,1h5c0.553,0,1-0.448,1-1S17.053,53,16.5,53z"/><path d="M16.5,57h-5c-0.553,0-1,0.448-1,1s0.447,1,1,1h5c0.553,0,1-0.448,1-1S17.053,57,16.5,57z"/><path d="M16.5,49h-5c-0.553,0-1,0.448-1,1s0.447,1,1,1h5c0.553,0,1-0.448,1-1S17.053,49,16.5,49z"/><path d="M62.5,34H58v-2V2c0-0.552,0.053-1-0.5-1h-50C6.947,1,6,1.448,6,2v30v6c0,0.552,0.947,1,1.5,1h21.057l-2.25,6H7.5    C6.947,45,6,45.448,6,46v16c0,0.552,0.947,1,1.5,1h50c0.553,0,0.5-0.448,0.5-1v-7h4.5c0.553,0,0.5-0.448,0.5-1V35    C63,34.448,63.053,34,62.5,34z M8,3h48v28H8V3z M8,37v-4h48v4H36h-6H8z M30.693,39h4.613l2.25,6h-9.113L30.693,39z M56,61H8V47h19    h12h0.02H56V61z M61,53h-3v-7c0-0.552,0.053-1-0.5-1H39.693l-2.25-6H57.5c0.553,0,0.5-0.448,0.5-1v-2h3V53z"/></g></g><text x="0" y="79" fill="#000000" font-size="5px" font-weight="bold" font-family="'Helvetica Neue', Helvetica, Arial-Unicode, Arial, Sans-serif">Created by Binpodo</text><text x="0" y="84" fill="#000000" font-size="5px" font-weight="bold" font-family="'Helvetica Neue', Helvetica, Arial-Unicode, Arial, Sans-serif">from the Noun Project</text></svg>