<svg xmlns="http://www.w3.org/2000/svg" viewBox="0 0 64 80" x="0px" y="0px"><title>Knowledge-Brain-learning-Book</title><g><path d="M61,20H57V17a1,1,0,0,0-1-1H44V12h4V10H43a1,1,0,0,0-1,1v5H38V6H54V4H37a1,1,0,0,0-1,1V16a1,1,0,0,0-.707.293L32,19.586l-3.293-3.293A1,1,0,0,0,28,16V5a1,1,0,0,0-1-1H10V6H26V16H22V11a1,1,0,0,0-1-1H16v2h4v4H8a1,1,0,0,0-1,1v3H3a1,1,0,0,0-1,1V61a1,1,0,0,0,1,1H61a1,1,0,0,0,1-1V21A1,1,0,0,0,61,20ZM33,21.414l3-3V20h2V18h4v4h2V18H55V51H36a1,1,0,0,0-.707.293L33,53.586ZM55,53v2H34.414l2-2ZM9,18H20v4h2V18h4v2h2V18.414l3,3V53.586l-2.293-2.293A1,1,0,0,0,28,51H9ZM9,53H27.586l2,2H9Zm51,7H4V22H7V56a1,1,0,0,0,1,1H56a1,1,0,0,0,1-1V22h3Z"/><polygon points="4 8 6 8 6 6 8 6 8 4 6 4 6 2 4 2 4 4 2 4 2 6 4 6 4 8"/><polygon points="10 8 10 10 8 10 8 12 10 12 10 14 12 14 12 12 14 12 14 10 12 10 12 8 10 8"/><rect x="20" y="24" width="2" height="2"/><rect x="26" y="22" width="2" height="2"/><rect x="20" y="28" width="2" height="2"/><rect x="26" y="26" width="2" height="2"/><polygon points="60 2 58 2 58 4 56 4 56 6 58 6 58 8 60 8 60 6 62 6 62 4 60 4 60 2"/><polygon points="54 14 54 12 56 12 56 10 54 10 54 8 52 8 52 10 50 10 50 12 52 12 52 14 54 14"/><rect x="42" y="24" width="2" height="2"/><rect x="36" y="22" width="2" height="2"/><rect x="42" y="28" width="2" height="2"/><rect x="36" y="26" width="2" height="2"/><rect x="12" y="38" width="16" height="2"/><rect x="14" y="34" width="2" height="2"/><rect x="18" y="34" width="10" height="2"/><rect x="12" y="42" width="16" height="2"/><rect x="12" y="46" width="12" height="2"/><rect x="36" y="38" width="16" height="2"/><rect x="38" y="34" width="2" height="2"/><rect x="42" y="34" width="10" height="2"/><rect x="36" y="42" width="16" height="2"/><rect x="36" y="46" width="12" height="2"/></g><text x="0" y="79" fill="#000000" font-size="5px" font-weight="bold" font-family="'Helvetica Neue', Helvetica, Arial-Unicode, Arial, Sans-serif">Created by Nhor</text><text x="0" y="84" fill="#000000" font-size="5px" font-weight="bold" font-family="'Helvetica Neue', Helvetica, Arial-Unicode, Arial, Sans-serif">from the Noun Project</text></svg>