<svg xmlns="http://www.w3.org/2000/svg" viewBox="0 0 64 80" x="0px" y="0px"><title>13-Programming and Development</title><g data-name="13-Programming and Development"><path d="M63,51H1a1,1,0,0,1-1-1V6A1,1,0,0,1,1,5H15a1,1,0,0,1,1,1V24H48a1,1,0,0,1,1,1V36h5V6a1,1,0,0,1,1-1h8a1,1,0,0,1,1,1V50A1,1,0,0,1,63,51ZM2,49H62V7H56V37a1,1,0,0,1-1,1H48a1,1,0,0,1-1-1V26H15a1,1,0,0,1-1-1V7H2Z"/><rect x="1" y="43" width="62" height="2"/><path d="M42,59H22a1,1,0,0,1-.97-1.242l2-8A1,1,0,0,1,24,49H40a1,1,0,0,1,.97.758l2,8A1,1,0,0,1,42,59ZM23.281,57H40.719l-1.5-6H24.781Z"/><g data-name="Group"><path d="M45,63H19a2,2,0,0,1-2-2V59a2,2,0,0,1,2-2H45a2,2,0,0,1,2,2v2A2,2,0,0,1,45,63ZM18,61h0Zm1,0,26,0V59H19Z"/></g><path d="M21,20H15a1,1,0,0,1-1-1V2a1,1,0,0,1,1-1h6a1,1,0,0,1,1,1V19A1,1,0,0,1,21,20Zm-5-2h4V3H16Z"/><path d="M29,26H15a1,1,0,0,1-1-1V19a1,1,0,0,1,1-1H29a1,1,0,0,1,1,1v6A1,1,0,0,1,29,26ZM16,24H28V20H16Z"/><path d="M39,20H25a1,1,0,0,1-1-1V13a1,1,0,0,1,1-1H39a1,1,0,0,1,1,1v6A1,1,0,0,1,39,20ZM26,18H38V14H26Z"/><path d="M45,10H31a1,1,0,0,1-1-1V3a1,1,0,0,1,1-1H45a1,1,0,0,1,1,1V9A1,1,0,0,1,45,10ZM32,8H44V4H32Z"/><path d="M55,21H49a1,1,0,0,1-1-1V6a1,1,0,0,1,1-1h6a1,1,0,0,1,1,1V20A1,1,0,0,1,55,21Zm-5-2h4V7H50Z"/><path d="M20,44H18V41.947l-3.445-.189a1,1,0,0,1-.918-.767,12.953,12.953,0,0,0-1.578-3.8A1,1,0,0,1,12.166,36l2.308-2.575-2.9-2.9L9,32.834a1,1,0,0,1-1.192.107,12.948,12.948,0,0,0-3.8-1.578,1,1,0,0,1-.766-.918L3.053,27H1V25H4a1,1,0,0,1,1,.945l.2,3.665A14.928,14.928,0,0,1,8.2,30.86l2.738-2.455a1,1,0,0,1,1.375.038l4.24,4.24a1,1,0,0,1,.038,1.374L14.14,36.8A14.928,14.928,0,0,1,15.39,39.8l3.665.2A1,1,0,0,1,20,41Z"/><path d="M11,44H9a8.009,8.009,0,0,0-8-8V34A10.011,10.011,0,0,1,11,44Z"/><path d="M20,38H18a8.009,8.009,0,0,1,8-8v2A6.006,6.006,0,0,0,20,38Z"/><rect x="28" y="30" width="2" height="2"/><rect x="32" y="30" width="2" height="2"/><path d="M12,26a8.009,8.009,0,0,1-8-8H6a6.006,6.006,0,0,0,6,6Z"/><rect x="4" y="14" width="2" height="2"/><rect x="4" y="10" width="2" height="2"/><rect x="26" y="3" width="2" height="2"/><rect x="26" y="7" width="2" height="2"/><rect x="43" y="12" width="2" height="2"/><rect x="43" y="16" width="2" height="2"/></g><text x="0" y="79" fill="#000000" font-size="5px" font-weight="bold" font-family="'Helvetica Neue', Helvetica, Arial-Unicode, Arial, Sans-serif">Created by Iconstock</text><text x="0" y="84" fill="#000000" font-size="5px" font-weight="bold" font-family="'Helvetica Neue', Helvetica, Arial-Unicode, Arial, Sans-serif">from the Noun Project</text></svg>