<?xml version="1.0" encoding="UTF-8" ?>
<svg xmlns="http://www.w3.org/2000/svg" xmlns:xlink="http://www.w3.org/1999/xlink" width="413pt" height="570pt" viewBox="0.00 0.00 413.42 570.40">
<g id="graph0" class="graph" transform="scale(1 1) rotate(0) translate(4 566.4)">
<title>%0</title>
<!-- British Library -->
<g id="node1" class="node">
<title>British Library</title>
<polygon fill="none" stroke="#000000" points="93.3897,-562.4 .2029,-562.4 .2029,-526.4 99.3897,-526.4 99.3897,-556.4 93.3897,-562.4"/>
<polyline fill="none" stroke="#000000" points="93.3897,-562.4 93.3897,-556.4 "/>
<polyline fill="none" stroke="#000000" points="99.3897,-556.4 93.3897,-556.4 "/>
<text text-anchor="middle" x="49.7963" y="-540.2" font-family="Times,serif" font-size="14.00" fill="#000000">British Library</text>
</g>
<!-- meta -->
<g id="node2" class="node">
<title>meta</title>
<polygon fill="none" stroke="#000000" points="239.8181,-490.4 113.7745,-490.4 113.7745,-454.4 239.8181,-454.4 239.8181,-490.4"/>
<text text-anchor="middle" x="176.7963" y="-468.2" font-family="Times,serif" font-size="14.00" fill="#000000">metadata alignment</text>
</g>
<!-- British Library&#45;&gt;meta -->
<g id="edge1" class="edge">
<title>British Library-&gt;meta</title>
<path fill="none" stroke="#000000" d="M81.8438,-526.2314C98.2383,-516.9368 118.3749,-505.5208 135.8792,-495.5971"/>
<polygon fill="#000000" stroke="#000000" points="137.786,-498.5395 144.7591,-490.5628 134.3337,-492.45 137.786,-498.5395"/>
</g>
<!-- metadata -->
<g id="node5" class="node">
<title>metadata</title>
<polygon fill="none" stroke="#000000" points="163.8281,-407.2 103.7645,-407.2 103.7645,-371.2 169.8281,-371.2 169.8281,-401.2 163.8281,-407.2"/>
<polyline fill="none" stroke="#000000" points="163.8281,-407.2 163.8281,-401.2 "/>
<polyline fill="none" stroke="#000000" points="169.8281,-401.2 163.8281,-401.2 "/>
<text text-anchor="middle" x="136.7963" y="-385" font-family="Times,serif" font-size="14.00" fill="#000000">metadata</text>
</g>
<!-- meta&#45;&gt;metadata -->
<g id="edge4" class="edge">
<title>meta-&gt;metadata</title>
<path fill="none" stroke="#000000" d="M168.1169,-454.3468C162.7704,-443.2261 155.8145,-428.7579 149.8164,-416.2818"/>
<polygon fill="#000000" stroke="#000000" points="152.9462,-414.7139 145.4588,-407.2179 146.6374,-417.747 152.9462,-414.7139"/>
</g>
<!-- full text -->
<g id="node6" class="node">
<title>full text</title>
<polygon fill="none" stroke="#000000" points="241.7339,-407.2 187.8587,-407.2 187.8587,-371.2 247.7339,-371.2 247.7339,-401.2 241.7339,-407.2"/>
<polyline fill="none" stroke="#000000" points="241.7339,-407.2 241.7339,-401.2 "/>
<polyline fill="none" stroke="#000000" points="247.7339,-401.2 241.7339,-401.2 "/>
<text text-anchor="middle" x="217.7963" y="-385" font-family="Times,serif" font-size="14.00" fill="#000000">full text</text>
</g>
<!-- meta&#45;&gt;full text -->
<g id="edge5" class="edge">
<title>meta-&gt;full text</title>
<path fill="none" stroke="#000000" d="M185.6927,-454.3468C191.1729,-443.2261 198.3026,-428.7579 204.4507,-416.2818"/>
<polygon fill="#000000" stroke="#000000" points="207.6364,-417.7351 208.9173,-407.2179 201.3574,-414.6408 207.6364,-417.7351"/>
</g>
<!-- Project Gutenberg -->
<g id="node3" class="node">
<title>Project Gutenberg</title>
<polygon fill="none" stroke="#000000" points="230.0371,-562.4 117.5555,-562.4 117.5555,-526.4 236.0371,-526.4 236.0371,-556.4 230.0371,-562.4"/>
<polyline fill="none" stroke="#000000" points="230.0371,-562.4 230.0371,-556.4 "/>
<polyline fill="none" stroke="#000000" points="236.0371,-556.4 230.0371,-556.4 "/>
<text text-anchor="middle" x="176.7963" y="-540.2" font-family="Times,serif" font-size="14.00" fill="#000000">Project Gutenberg</text>
</g>
<!-- Project Gutenberg&#45;&gt;meta -->
<g id="edge2" class="edge">
<title>Project Gutenberg-&gt;meta</title>
<path fill="none" stroke="#000000" d="M176.7963,-526.2314C176.7963,-518.531 176.7963,-509.3743 176.7963,-500.8166"/>
<polygon fill="#000000" stroke="#000000" points="180.2964,-500.8132 176.7963,-490.8133 173.2964,-500.8133 180.2964,-500.8132"/>
</g>
<!-- Oxford Text Archive -->
<g id="node4" class="node">
<title>Oxford Text Archive</title>
<polygon fill="none" stroke="#000000" points="381.969,-562.4 253.6236,-562.4 253.6236,-526.4 387.969,-526.4 387.969,-556.4 381.969,-562.4"/>
<polyline fill="none" stroke="#000000" points="381.969,-562.4 381.969,-556.4 "/>
<polyline fill="none" stroke="#000000" points="387.969,-556.4 381.969,-556.4 "/>
<text text-anchor="middle" x="320.7963" y="-540.2" font-family="Times,serif" font-size="14.00" fill="#000000">Oxford Text Archive</text>
</g>
<!-- Oxford Text Archive&#45;&gt;meta -->
<g id="edge3" class="edge">
<title>Oxford Text Archive-&gt;meta</title>
<path fill="none" stroke="#000000" d="M284.459,-526.2314C265.4567,-516.7302 242.0205,-505.0121 221.8711,-494.9374"/>
<polygon fill="#000000" stroke="#000000" points="223.3818,-491.7797 212.8723,-490.438 220.2513,-498.0407 223.3818,-491.7797"/>
</g>
<!-- DB -->
<g id="node7" class="node">
<title>DB</title>
<path fill="none" stroke="#000000" stroke-width="2" d="M257.8432,-320.7273C257.8432,-322.5331 239.8935,-324 217.7963,-324 195.6991,-324 177.7494,-322.5331 177.7494,-320.7273 177.7494,-320.7273 177.7494,-291.2727 177.7494,-291.2727 177.7494,-289.4669 195.6991,-288 217.7963,-288 239.8935,-288 257.8432,-289.4669 257.8432,-291.2727 257.8432,-291.2727 257.8432,-320.7273 257.8432,-320.7273"/>
<path fill="none" stroke="#000000" stroke-width="2" d="M257.8432,-320.7273C257.8432,-318.9214 239.8935,-317.4545 217.7963,-317.4545 195.6991,-317.4545 177.7494,-318.9214 177.7494,-320.7273"/>
<text text-anchor="middle" x="217.7963" y="-301.8" font-family="Times,serif" font-size="14.00" fill="#000000">Corpus-DB</text>
</g>
<!-- metadata&#45;&gt;DB -->
<g id="edge6" class="edge">
<title>metadata-&gt;DB</title>
<path fill="none" stroke="#000000" d="M154.3721,-371.1468C165.7295,-359.481 180.6732,-344.1314 193.2023,-331.262"/>
<polygon fill="#000000" stroke="#000000" points="195.7869,-333.6246 200.2548,-324.0179 190.7713,-328.7416 195.7869,-333.6246"/>
</g>
<!-- full text&#45;&gt;DB -->
<g id="edge7" class="edge">
<title>full text-&gt;DB</title>
<path fill="none" stroke="#000000" d="M217.7963,-371.1468C217.7963,-360.3532 217.7963,-346.4061 217.7963,-334.1876"/>
<polygon fill="#000000" stroke="#000000" points="221.2964,-334.0179 217.7963,-324.0179 214.2964,-334.018 221.2964,-334.0179"/>
</g>
<!-- dedupe -->
<g id="node9" class="node">
<title>dedupe</title>
<polygon fill="none" stroke="#000000" points="304.0841,-252 131.5085,-252 131.5085,-216 304.0841,-216 304.0841,-252"/>
<text text-anchor="middle" x="217.7963" y="-229.8" font-family="Times,serif" font-size="14.00" fill="#000000">deduplication, vectorization</text>
</g>
<!-- DB&#45;&gt;dedupe -->
<g id="edge9" class="edge">
<title>DB-&gt;dedupe</title>
<path fill="none" stroke="#000000" d="M217.7963,-287.8314C217.7963,-280.131 217.7963,-270.9743 217.7963,-262.4166"/>
<polygon fill="#000000" stroke="#000000" points="221.2964,-262.4132 217.7963,-252.4133 214.2964,-262.4133 221.2964,-262.4132"/>
</g>
<!-- Extra metadata: \n Wikipedia, Amazon, \n and Goodreads -->
<g id="node8" class="node">
<title>Extra metadata: \n Wikipedia, Amazon, \n and Goodreads</title>
<polygon fill="none" stroke="#000000" points="399.5385,-418.6014 266.0541,-418.6014 266.0541,-359.7986 405.5385,-359.7986 405.5385,-412.6014 399.5385,-418.6014"/>
<polyline fill="none" stroke="#000000" points="399.5385,-418.6014 399.5385,-412.6014 "/>
<polyline fill="none" stroke="#000000" points="405.5385,-412.6014 399.5385,-412.6014 "/>
<text text-anchor="middle" x="335.7963" y="-401.8" font-family="Times,serif" font-size="14.00" fill="#000000">Extra metadata: </text>
<text text-anchor="middle" x="335.7963" y="-385" font-family="Times,serif" font-size="14.00" fill="#000000"> Wikipedia, Amazon, </text>
<text text-anchor="middle" x="335.7963" y="-368.2" font-family="Times,serif" font-size="14.00" fill="#000000"> and Goodreads</text>
</g>
<!-- Extra metadata: \n Wikipedia, Amazon, \n and Goodreads&#45;&gt;DB -->
<g id="edge8" class="edge">
<title>Extra metadata: \n Wikipedia, Amazon, \n and Goodreads-&gt;DB</title>
<path fill="none" stroke="#000000" d="M294.1939,-359.8668C280.2597,-350.042 264.9037,-339.2147 251.6363,-329.8601"/>
<polygon fill="#000000" stroke="#000000" points="253.4449,-326.8528 243.2553,-323.9507 249.4112,-332.5737 253.4449,-326.8528"/>
</g>
<!-- API -->
<g id="node10" class="node">
<title>API</title>
<polygon fill="none" stroke="#000000" points="256.071,-180 179.5216,-180 179.5216,-144 256.071,-144 256.071,-180"/>
<text text-anchor="middle" x="217.7963" y="-157.8" font-family="Times,serif" font-size="14.00" fill="#000000">REST API</text>
</g>
<!-- dedupe&#45;&gt;API -->
<g id="edge10" class="edge">
<title>dedupe-&gt;API</title>
<path fill="none" stroke="#000000" d="M217.7963,-215.8314C217.7963,-208.131 217.7963,-198.9743 217.7963,-190.4166"/>
<polygon fill="#000000" stroke="#000000" points="221.2964,-190.4132 217.7963,-180.4133 214.2964,-190.4133 221.2964,-190.4132"/>
</g>
<!-- JSON -->
<g id="node11" class="node">
<title>JSON</title>
<polygon fill="none" stroke="#000000" points="303.7571,-108 125.8355,-108 125.8355,-72 309.7571,-72 309.7571,-102 303.7571,-108"/>
<polyline fill="none" stroke="#000000" points="303.7571,-108 303.7571,-102 "/>
<polyline fill="none" stroke="#000000" points="309.7571,-102 303.7571,-102 "/>
<text text-anchor="middle" x="217.7963" y="-85.8" font-family="Times,serif" font-size="14.00" fill="#000000">JSON Metadata and Full Text</text>
</g>
<!-- API&#45;&gt;JSON -->
<g id="edge11" class="edge">
<title>API-&gt;JSON</title>
<path fill="none" stroke="#000000" d="M217.7963,-143.8314C217.7963,-136.131 217.7963,-126.9743 217.7963,-118.4166"/>
<polygon fill="#000000" stroke="#000000" points="221.2964,-118.4132 217.7963,-108.4133 214.2964,-118.4133 221.2964,-118.4132"/>
</g>
<!-- text -->
<g id="node12" class="node">
<title>text</title>
<polygon fill="none" stroke="#000000" stroke-dasharray="1,5" points="320.4951,-36 115.0975,-36 115.0975,0 320.4951,0 320.4951,-36"/>
<text text-anchor="middle" x="217.7963" y="-13.8" font-family="Times,serif" font-size="14.00" fill="#000000">Your awesome text analysis here!</text>
</g>
<!-- JSON&#45;&gt;text -->
<g id="edge12" class="edge">
<title>JSON-&gt;text</title>
<path fill="none" stroke="#000000" d="M217.7963,-71.8314C217.7963,-64.131 217.7963,-54.9743 217.7963,-46.4166"/>
<polygon fill="#000000" stroke="#000000" points="221.2964,-46.4132 217.7963,-36.4133 214.2964,-46.4133 221.2964,-46.4132"/>
</g>
</g>
</svg>
